<?xml version="1.0" encoding="UTF-8"?>
<svg version="1.1" xmlns="http://www.w3.org/2000/svg" width="1024" height="1024">
<path d="M0 0 C2.07327791 -0.00067783 4.14655573 -0.00165177 6.21983337 -0.00289917 C10.53661872 -0.00435864 14.85338314 -0.00228214 19.17016602 0.00244141 C24.57821499 0.00808455 29.98621417 0.00478732 35.39426136 -0.0009985 C55.92801507 -0.01962583 76.45300223 0.04303466 96.98046875 0.58984375 C97.75102663 0.61005962 98.52158451 0.6302755 99.31549263 0.65110397 C160.91263669 2.31669667 160.91263669 2.31669667 180.83984375 23.2578125 C185.65988737 29.03605757 189.12420263 35.52845532 192.65234375 42.1328125 C193.19842285 43.14972168 193.74450195 44.16663086 194.30712891 45.21435547 C196.87369521 49.99411531 199.43817627 54.77492651 201.98876953 59.56323242 C206.1792452 67.42519977 210.43977848 75.24307723 214.85888672 82.97949219 C217.65234375 87.92129941 217.65234375 87.92129941 217.65234375 90.1328125 C218.2815976 90.12837128 218.91085144 90.12393005 219.55917358 90.11935425 C226.14603388 90.07488906 232.73285109 90.04485031 239.31982422 90.02294922 C241.7736179 90.0129311 244.22739976 89.99931284 246.68115234 89.98193359 C250.22105844 89.95750062 253.76080581 89.94628716 257.30078125 89.9375 C258.38660492 89.92717743 259.47242859 89.91685486 260.59115601 89.90621948 C272.49647167 89.90449075 281.74317962 91.35496313 290.46484375 99.8828125 C294.45359542 105.80895784 296.4366136 111.9436722 295.65234375 119.1328125 C294.26400184 124.73999184 292.1852468 128.40575888 287.65234375 132.1328125 C287.15605469 132.54144531 286.65976562 132.95007813 286.1484375 133.37109375 C279.28799527 138.32841554 270.7083256 139.98149917 262.65234375 142.1328125 C263.14863281 142.53371094 263.64492188 142.93460938 264.15625 143.34765625 C280.49851926 157.02306563 287.35761445 175.04089394 289.22885132 195.7890625 C290.18171939 208.30444554 289.96234413 220.90438845 289.95392632 233.44908905 C289.95284207 236.65752808 289.95777543 239.86594795 289.96253175 243.07438278 C289.97353952 250.6454696 289.97411125 258.21650675 289.96801758 265.78759766 C289.96195724 273.56086794 289.97436091 281.33395816 289.99558765 289.10719776 C290.01325541 295.82791439 290.01919769 302.54857389 290.0159499 309.26931286 C290.01414838 313.26344421 290.01666088 317.25744643 290.03066444 321.2515564 C290.04332671 325.0012577 290.04122038 328.75067827 290.02825356 332.50037575 C290.02479981 334.51130039 290.03599735 336.52223399 290.04782104 338.53312683 C289.96917509 352.262181 287.11890247 364.327043 278.0625 375.0078125 C266.67578766 385.69851553 250.23595635 388.82292716 235.125 388.4140625 C222.22106356 387.36897428 208.92892216 383.6251253 199.65234375 374.1328125 C191.63421517 364.55707837 188.57266428 355.03954751 188.05078125 342.7265625 C188.01041748 341.89737305 187.97005371 341.06818359 187.9284668 340.21386719 C187.83063391 338.18712024 187.7406794 336.15999559 187.65234375 334.1328125 C186.78245095 334.13796623 185.91255816 334.14311996 185.01630497 334.14842987 C160.02569109 334.2962179 135.03504999 334.43886441 110.04438615 334.57794458 C103.51388462 334.61431059 96.98338554 334.65108275 90.45288795 334.6881476 C2.05859349 335.18922757 2.05859349 335.18922757 -36.82223296 335.1319747 C-38.89670967 335.12893738 -40.97118658 335.12623211 -43.04566383 335.12360001 C-55.36645499 335.10747609 -67.68710576 335.08090799 -80.00777435 335.02262783 C-84.31151296 335.00382151 -88.61525034 334.99234022 -92.91901779 334.98250008 C-95.77688726 334.97300807 -98.63453525 334.95262696 -101.49234009 334.93174744 C-103.16815046 334.92773993 -104.8439624 334.92432594 -106.51977539 334.92163086 C-107.26554053 334.91287178 -108.01130568 334.9041127 -108.77966976 334.8950882 C-113.90519951 334.87758851 -113.90519951 334.87758851 -118.34765625 337.1328125 C-118.85333428 339.83985536 -119.12827785 342.27877591 -119.28515625 345.0078125 C-120.4164681 357.7213478 -124.77696399 368.61036994 -134.6328125 377.1015625 C-148.86342694 387.74633273 -166.35861712 389.86452507 -183.59765625 387.3828125 C-196.4856827 384.91489254 -206.6419276 378.85808877 -214.34765625 368.1328125 C-221.79449759 354.88625048 -221.50172018 340.08513533 -221.46118164 325.2980957 C-221.46089894 323.83836367 -221.46105911 322.37863149 -221.46162415 320.91889954 C-221.4619089 316.98991145 -221.45606453 313.06095443 -221.44905019 309.13197351 C-221.44276275 305.01337358 -221.44220861 300.8947728 -221.44102478 296.77616882 C-221.43792727 288.99209874 -221.42973534 281.20804284 -221.41967529 273.42397898 C-221.40846488 264.55569628 -221.40299132 255.68741286 -221.39797986 246.81912482 C-221.38755128 228.59034603 -221.36998268 210.36158041 -221.34765625 192.1328125 C-220.68765625 192.1328125 -220.02765625 192.1328125 -219.34765625 192.1328125 C-219.34507812 191.36839844 -219.3425 190.60398437 -219.33984375 189.81640625 C-218.69420781 171.93229068 -210.01018396 157.12387855 -197.2890625 144.93359375 C-196.64839844 144.33933594 -196.00773437 143.74507812 -195.34765625 143.1328125 C-196.00765625 142.8028125 -196.66765625 142.4728125 -197.34765625 142.1328125 C-197.34765625 141.4728125 -197.34765625 140.8128125 -197.34765625 140.1328125 C-198.62640625 140.0503125 -199.90515625 139.9678125 -201.22265625 139.8828125 C-209.67530864 138.91261812 -217.77639064 135.76808639 -223.34765625 129.1328125 C-227.17498878 123.21577912 -228.562853 117.09354477 -227.34765625 110.1328125 C-225.06602509 103.29801474 -221.50468977 97.96667667 -215.34765625 94.1328125 C-209.49553378 91.30149991 -203.59023267 90.04025179 -197.09838867 89.92749023 C-195.56736763 89.8975724 -195.56736763 89.8975724 -194.00541687 89.86705017 C-192.91566055 89.85033768 -191.82590424 89.83362518 -190.703125 89.81640625 C-189.57820145 89.79562515 -188.45327789 89.77484406 -187.29426575 89.75343323 C-183.70795685 89.68815458 -180.12157598 89.62915351 -176.53515625 89.5703125 C-174.10090408 89.52710667 -171.66665913 89.48349172 -169.23242188 89.43945312 C-163.27090897 89.3324954 -157.30932479 89.230689 -151.34765625 89.1328125 C-150.95610352 88.39981934 -150.56455078 87.66682617 -150.16113281 86.91162109 C-146.23112784 79.55748744 -142.29326943 72.20762195 -138.34863281 64.86132812 C-137.09852615 62.53298768 -135.85069622 60.20348332 -134.60449219 57.87304688 C-111.53252172 14.75493813 -111.53252172 14.75493813 -88.34375 7.00390625 C-60.37669528 -1.12732348 -28.89402144 -0.03436737 0 0 Z M-102.34765625 27.1328125 C-108.12114813 33.60268522 -112.48855554 40.46216274 -116.47265625 48.1328125 C-117.59226038 50.24489109 -118.71205916 52.3568665 -119.83203125 54.46875 C-120.40501953 55.55768555 -120.97800781 56.64662109 -121.56835938 57.76855469 C-123.97948498 62.32746122 -126.44026926 66.85882667 -128.89916992 71.39208984 C-141.81381468 91.52510556 -141.81381468 91.52510556 -145.34765625 114.1328125 C-141.19181257 120.81446929 -132.44705688 122.34332814 -125.34765625 124.1328125 C-120.86258132 124.91739759 -116.37992214 125.39960673 -111.84765625 125.8203125 C-110.74679687 125.93697266 -109.6459375 126.05363281 -108.51171875 126.17382812 C-90.86442544 127.94455994 -73.08160575 128.31816837 -55.359375 128.6875 C-54.37708105 128.70843594 -53.3947871 128.72937187 -52.38272667 128.75094223 C-26.95943961 129.27832083 -1.53492709 129.28520867 23.89282227 129.26318359 C30.49881073 129.25750172 37.10475874 129.26087231 43.71074581 129.26662254 C69.929739 129.2859613 96.14078845 129.1835212 122.35546875 128.6796875 C123.41593603 128.6597385 124.47640331 128.63978951 125.56900597 128.61923599 C168.99069344 130.52312972 168.99069344 130.52312972 208.84375 118.5546875 C211.34937608 115.49939416 212.56343849 113.67612241 213.21484375 109.6953125 C211.6535768 99.80728848 206.16915756 90.93645633 201.65234375 82.1328125 C201.16910645 81.18567383 200.68586914 80.23853516 200.18798828 79.26269531 C187.75786558 49.23651723 187.75786558 49.23651723 166.65234375 27.1328125 C166.65234375 26.4728125 166.65234375 25.8128125 166.65234375 25.1328125 C142.93960036 12.15657361 115.89562411 12.25522511 89.40234375 11.5703125 C88.60740509 11.54946594 87.81246643 11.52861938 86.99343872 11.50714111 C67.86500389 11.03049875 48.73123277 11.02219104 29.59803772 11.00987625 C27.12968604 11.00784528 24.66134214 11.00409626 22.19299316 10.99996948 C-43.83903005 6.36827749 -43.83903005 6.36827749 -102.34765625 27.1328125 Z M-186.3894043 101.39526367 C-187.82515907 101.42875209 -189.26105312 101.45670715 -190.69702148 101.47924805 C-192.80376055 101.51299992 -194.90937021 101.56521598 -197.015625 101.62109375 C-198.25594482 101.64727783 -199.49626465 101.67346191 -200.77416992 101.70043945 C-205.92627733 102.32381735 -209.8843478 103.74652028 -213.72265625 107.3828125 C-215.74192255 110.80003239 -216.27801673 113.1633598 -216.34765625 117.1328125 C-214.82286049 121.99309899 -212.72096528 123.80102354 -208.31396484 126.20727539 C-205.20998429 127.66831218 -201.98876606 128.50106908 -198.66015625 129.2578125 C-197.96897705 129.42394043 -197.27779785 129.59006836 -196.56567383 129.76123047 C-191.31746181 130.99261393 -186.04643266 131.91835721 -180.703125 132.640625 C-178.34765625 133.1328125 -178.34765625 133.1328125 -175.34765625 135.1328125 C-174.53515625 138.3203125 -174.53515625 138.3203125 -175.34765625 142.1328125 C-177.62165644 144.18894441 -180.03127817 145.74961572 -182.6171875 147.39453125 C-195.84462699 155.81543336 -203.81719935 169.360737 -207.76953125 184.296875 C-209.42110856 192.39853125 -209.52613356 200.36310912 -209.5847168 208.60693359 C-209.5975928 209.95820465 -209.61084792 211.30947215 -209.62445068 212.66073608 C-209.65987159 216.31421694 -209.68921591 219.9677215 -209.71684241 223.62126875 C-209.73442675 225.91299449 -209.75329211 228.20470611 -209.77259254 230.496418 C-209.84005874 238.51825013 -209.90240366 246.54010431 -209.96020508 254.56201172 C-210.01389777 261.99412047 -210.07902898 269.42606899 -210.14954346 276.85803545 C-210.20985802 283.27196145 -210.26177803 289.68592185 -210.30747062 296.09996855 C-210.33480076 299.91563369 -210.3653404 303.73120058 -210.4044857 307.54676437 C-212.46376315 339.54475589 -212.46376315 339.54475589 -200.09375 367.5703125 C-190.94748683 375.75488805 -178.69637598 377.72848351 -166.80078125 377.4140625 C-155.81272709 376.51910786 -145.74457662 373.04753949 -137.97265625 364.9453125 C-131.24911284 356.39327004 -130.14907575 345.40162495 -130.00585938 334.92773438 C-129.86994578 331.56150238 -129.58921856 329.47252654 -127.6171875 326.69921875 C-123.70992684 324.00246914 -119.58437373 324.0076947 -114.94461346 324.00417805 C-113.86670597 324.0009536 -112.78879848 323.99772915 -111.67822713 323.994407 C-109.91064076 323.9967299 -109.91064076 323.9967299 -108.10734558 323.99909973 C-106.85098386 323.99683417 -105.59462213 323.99456862 -104.30018884 323.99223441 C-100.81523917 323.98611778 -97.3303135 323.98624984 -93.84535968 323.98742878 C-90.0858828 323.98763283 -86.32641361 323.98211369 -82.56694031 323.97737122 C-75.20218708 323.96906479 -67.83744186 323.96631638 -60.47268435 323.96575884 C-54.48602844 323.96528366 -48.49937518 323.96322884 -42.51272011 323.96005821 C-25.53882607 323.95125157 -8.56493835 323.94663884 8.408958 323.94738869 C9.32402383 323.94742864 10.23908966 323.9474686 11.18188477 323.94750977 C12.09806812 323.94755065 13.01425148 323.94759153 13.95819797 323.94763365 C28.80609774 323.94804009 43.65397215 323.93847094 58.50186459 323.9243714 C73.74819063 323.91000777 88.9945043 323.90310121 104.24083728 323.90396518 C112.80023087 323.90429716 121.35959787 323.90154962 129.91898537 323.89078712 C137.20673352 323.8816823 144.49444304 323.87950672 151.78219441 323.88629655 C155.49961144 323.88956187 159.21695434 323.88961799 162.93436432 323.8809433 C166.96665972 323.87163069 170.99878342 323.87785402 175.03108215 323.88557434 C176.2027809 323.88043078 177.37447964 323.87528721 178.58168441 323.86998779 C184.59449014 323.89545604 189.95414263 324.1149024 195.65234375 326.1328125 C198.68080133 330.95435685 198.9957236 335.27989506 199.08984375 340.8828125 C199.49490717 351.16500891 202.06531392 360.73124339 209.65234375 368.1328125 C220.19865777 375.75401678 232.89803002 377.99751174 245.65234375 377.1328125 C257.08077132 375.2139654 266.42354423 371.4933866 273.65234375 362.1328125 C277.3726979 355.18529236 278.77630288 348.19660674 278.77932739 340.34481812 C278.78355713 338.64669228 278.78355713 338.64669228 278.78787231 336.91426086 C278.78584808 335.68620224 278.78382385 334.45814362 278.78173828 333.19287109 C278.7834906 331.88788162 278.78524292 330.58289215 278.78704834 329.23835754 C278.79159931 325.66516039 278.78984105 322.09199219 278.78666925 318.51879454 C278.78412615 314.75785974 278.7864893 310.99692733 278.78805542 307.23599243 C278.78987457 300.90602173 278.78748075 294.57606268 278.78271484 288.24609375 C278.77730564 280.97888853 278.7790114 273.71171151 278.78454125 266.444507 C278.78911928 260.17236067 278.78969928 253.90022271 278.78710258 247.62807524 C278.78556108 243.89733332 278.78528576 240.16660452 278.78863907 236.43586349 C278.82080976 216.98665932 278.82080976 216.98665932 278.21435547 197.54931641 C278.17668123 196.77003469 278.139007 195.99075298 278.10019112 195.18785667 C277.16652801 178.81849067 270.64710995 164.36409274 258.65234375 153.1328125 C254.67599501 149.7216968 250.66197228 146.68719417 246.08984375 144.1328125 C243.65234375 142.1328125 243.65234375 142.1328125 243.27734375 138.3828125 C243.40109375 137.3103125 243.52484375 136.2378125 243.65234375 135.1328125 C246.92710065 133.24352967 249.94092012 132.71014507 253.65234375 132.1328125 C253.98234375 131.8028125 254.31234375 131.4728125 254.65234375 131.1328125 C256.06631348 130.99685387 257.48411059 130.90037405 258.90234375 130.8203125 C266.72528614 130.0672419 275.74131051 128.77709223 281.46484375 122.9453125 C283.92034882 119.49573589 284.42173638 116.39454289 284.1015625 112.2109375 C283.38884971 108.91386618 282.18305945 107.33907747 279.65234375 105.1328125 C274.25498146 102.35054013 269.92504614 101.67087236 263.90234375 101.62109375 C263.08540039 101.60314255 262.26845703 101.58519135 261.42675781 101.56669617 C258.83533844 101.51293003 256.24409534 101.47886815 253.65234375 101.4453125 C251.91273535 101.41209531 250.17315082 101.37760167 248.43359375 101.34179688 C235.87052904 100.455069 235.87052904 100.455069 223.65234375 102.1328125 C223.85859375 103.1434375 224.06484375 104.1540625 224.27734375 105.1953125 C224.8737278 111.457345 222.96038896 116.83994017 219.65234375 122.1328125 C207.75362526 135.85979756 185.55430581 135.7768295 168.65234375 137.1328125 C165.15775948 137.35379811 161.66259022 137.51592844 158.1640625 137.66015625 C156.69618538 137.72214455 156.69618538 137.72214455 155.19865417 137.78538513 C142.95839609 138.27556839 130.71244904 138.48329644 118.46484375 138.6953125 C116.0983026 138.73867716 113.7317661 138.78229586 111.36523438 138.82617188 C107.08181266 138.90456757 102.79838532 138.98246162 98.51489258 139.05688477 C97.66937332 139.07163345 96.82385406 139.08638214 95.95271301 139.10157776 C93.85275769 139.13009125 91.75249265 139.1328125 89.65234375 139.1328125 C87.67087714 139.13685448 85.68941154 139.14140527 83.70794678 139.14627075 C66.582786 139.18690118 49.45763804 139.21706856 32.33243942 139.23643684 C23.54305773 139.24664961 14.75371346 139.26058091 5.96435547 139.28369141 C-70.04959852 139.47953887 -70.04959852 139.47953887 -101.34765625 137.1328125 C-102.50119095 137.04797104 -103.65472565 136.96312958 -104.84321594 136.87571716 C-142.04888192 134.0751449 -142.04888192 134.0751449 -151.94140625 123.109375 C-156.50951397 116.68864581 -156.77845283 109.77546285 -156.34765625 102.1328125 C-166.09824872 100.08005619 -176.47574266 101.14637087 -186.3894043 101.39526367 Z " fill="#7AAFFE" transform="translate(477.34765625,309.8671875)"/>
<path d="M0 0 C0.68113755 -0.00297112 1.3622751 -0.00594224 2.06405318 -0.0090034 C4.34549983 -0.01767219 6.6268939 -0.01919709 8.90835571 -0.02069092 C10.54451102 -0.02532032 12.18066526 -0.03034514 13.81681824 -0.03573608 C18.26105697 -0.04884886 22.7052806 -0.05530265 27.14953566 -0.05974674 C29.92624712 -0.0626788 32.70295446 -0.06678382 35.47966385 -0.07125092 C44.16786854 -0.08492182 52.8560638 -0.09459092 61.5442785 -0.09845281 C71.57294762 -0.10293511 81.60148054 -0.12049268 91.63010824 -0.1494534 C99.38308758 -0.17106543 107.13602858 -0.1811568 114.88903773 -0.18249393 C119.51926258 -0.18354214 124.14935933 -0.18945362 128.77955246 -0.20731354 C133.13472888 -0.22378632 137.48968078 -0.22595362 141.84487724 -0.21717453 C143.44202335 -0.21640378 145.0391815 -0.22075196 146.63629723 -0.23063278 C148.8194034 -0.24334548 151.00171353 -0.23747991 153.18481445 -0.22705078 C154.40560385 -0.22851734 155.62639324 -0.2299839 156.88417625 -0.2314949 C161.44112714 0.2766876 164.83222952 1.72971942 168.05923462 5.01153564 C170.35297843 9.22059415 169.93478759 13.51140431 169.21939087 18.14044189 C165.8737199 27.82320729 159.30176367 33.87319255 150.43423462 38.63653564 C133.90991238 46.13141666 115.73049432 46.30023506 97.93423462 46.30841064 C96.26671827 46.31163407 94.59920219 46.31499891 92.9316864 46.3184967 C89.44791002 46.3244538 85.96415831 46.32634026 82.4803772 46.32574463 C78.0690118 46.32564346 73.65780897 46.33926431 69.2464819 46.35651684 C65.80327158 46.36777114 62.36009883 46.36965974 58.91687202 46.3691349 C57.29337571 46.37029613 55.66987779 46.37460997 54.04640007 46.38246727 C45.51567656 46.41987749 37.09953859 46.17720928 28.61221313 45.2666626 C27.53660204 45.15343926 27.53660204 45.15343926 26.43926144 45.03792858 C12.48476895 43.38177017 -2.21758349 38.67115851 -11.30404663 27.40997314 C-14.74364446 22.12318389 -17.24145535 16.16312357 -16.84310913 9.76544189 C-15.60508289 5.54158766 -14.25198674 3.80452239 -10.78060913 1.14044189 C-7.23765641 -0.11922486 -3.73064369 0.00909597 0 0 Z M-5.78060913 12.14044189 C-1.63898514 21.80423121 1.415276 25.42816071 10.77407837 29.82012939 C25.49212949 35.46038028 41.71930035 35.30057901 57.25454712 35.30841064 C58.78371713 35.31163658 60.31288685 35.31500156 61.84205627 35.3184967 C65.03319003 35.3244449 68.22429689 35.3263412 71.41543579 35.32574463 C74.64726379 35.32566357 77.87894946 35.33258058 81.11074829 35.34625244 C119.35799402 37.34289066 119.35799402 37.34289066 153.21939087 23.14044189 C156.43963476 19.19564313 157.20059752 17.23440863 158.21939087 12.14044189 C104.09939087 12.14044189 49.97939087 12.14044189 -5.78060913 12.14044189 Z " fill="#79B0FE" transform="translate(434.7806091308594,521.8595581054688)"/>
<path d="M0 0 C5.65699822 6.34687605 7.93318526 13.14204443 7.7734375 21.640625 C6.9903185 29.93588552 3.47069707 36.30517372 -1.4375 42.875 C-1.870625 43.59945312 -2.30375 44.32390625 -2.75 45.0703125 C-5.10952996 47.59369871 -7.05037507 47.43637951 -10.4375 47.875 C-12.83918232 48.75136445 -15.1964597 49.66314861 -17.5625 50.625 C-23.9393375 53.11890044 -30.35465566 55.04245454 -37 56.6875 C-38.24837646 56.9973584 -38.24837646 56.9973584 -39.52197266 57.31347656 C-52.58368467 60.4503963 -64.26489215 61.79322527 -76.32421875 54.77734375 C-81.88397809 50.64603644 -84.37020228 44.71990164 -85.4375 38.0625 C-85.84235808 31.12664189 -83.93907003 25.11528869 -79.69140625 19.61328125 C-67.78385917 7.79577233 -47.0052541 4.37604147 -31.4375 -0.125 C-30.56077637 -0.38152344 -29.68405273 -0.63804687 -28.78076172 -0.90234375 C-19.09774455 -3.68069275 -8.88354063 -6.44276585 0 0 Z M-36.375 12.625 C-37.87399544 13.07409832 -39.3733431 13.52202278 -40.87304688 13.96875 C-58.77543286 18.10834847 -58.77543286 18.10834847 -72.59765625 28.72265625 C-74.1429238 32.68285356 -73.99195953 36.70303013 -73.4375 40.875 C-71.28616067 44.56301029 -69.27728975 46.19375625 -65.4375 47.875 C-49.20497912 52.00812647 -24.89322884 43.60454138 -10.4375 35.875 C-6.11795876 31.33544817 -3.56348974 26.01783903 -3.37109375 19.69140625 C-3.76318043 15.45847043 -4.87803399 12.25349514 -7.4375 8.875 C-16.07828055 4.55460973 -27.81585311 9.9854445 -36.375 12.625 Z " fill="#7AB0FE" transform="translate(719.4375,489.125)"/>
<path d="M0 0 C0.78616699 0.2671582 1.57233398 0.53431641 2.38232422 0.80957031 C28.68889871 9.84164906 28.68889871 9.84164906 34 20 C37.04813777 26.67687321 36.85583463 33.26597705 34.5 40.125 C31.5910202 46.7111761 26.69236434 51.06593989 20.125 53.9375 C2.98388929 59.26514252 -24.56179733 49.94134034 -40 42 C-47.23012654 37.72120853 -51.14293162 32.5100232 -54.3125 24.8125 C-55.9377405 15.79980269 -56.31633341 6.82463316 -51 -1 C-47.26748226 -5.59386799 -42.97546815 -8.13105638 -37.11328125 -9.01171875 C-24.64256083 -8.96477752 -11.69785764 -4.00534646 0 0 Z M-41.5625 4.8125 C-44.67466025 9.54839603 -44.58441052 14.52115137 -44 20 C-42.27473358 25.50397495 -39.71756519 28.66172294 -35 32 C-20.90557041 39.02028276 -0.47202629 46.24435337 15.375 43.4375 C19.83055625 41.67064149 21.505674 40.08162436 24 36 C25.19461017 32.53563051 25.52221012 29.58919499 24.3671875 26.07421875 C21.03666013 19.53910832 15.71990352 17.21028152 9 15 C6.66559754 14.08605942 4.33237106 13.16911232 2 12.25 C-4.69578249 9.69732284 -11.47825946 7.5664605 -18.375 5.625 C-19.27734375 5.36235352 -20.1796875 5.09970703 -21.109375 4.82910156 C-31.65026996 1.89042875 -31.65026996 1.89042875 -41.5625 4.8125 Z " fill="#7AB0FE" transform="translate(353,494)"/>
<path d="M0 0 C6.85017095 -0.02542331 13.70032965 -0.04289769 20.55053711 -0.05493164 C22.87931778 -0.05995022 25.20809531 -0.0667665 27.53686523 -0.07543945 C30.89047013 -0.08761355 34.24403324 -0.09325318 37.59765625 -0.09765625 C39.15118553 -0.10539818 39.15118553 -0.10539818 40.73609924 -0.11329651 C45.93683107 -0.11369714 50.87615514 0.09209616 56 1 C55.67 1.66 55.34 2.32 55 3 C37.18 2.67 19.36 2.34 1 2 C0.67 1.34 0.34 0.68 0 0 Z " fill="#83B7FB" transform="translate(698,400)"/>
<path d="M0 0 C29.37 0 58.74 0 89 0 C89 0.33 89 0.66 89 1 C87.40600121 1.0154612 87.40600121 1.0154612 85.77980042 1.03123474 C75.78779051 1.12879479 65.79584531 1.2315119 55.80394077 1.33933926 C50.66643531 1.39461308 45.52892421 1.44804007 40.39135742 1.49731445 C35.43763538 1.5448924 30.48398488 1.59723256 25.53034782 1.65294075 C23.63604439 1.67339418 21.74172132 1.6921022 19.8473835 1.70907402 C17.203603 1.73305216 14.55995902 1.7631153 11.91625977 1.79467773 C10.72943352 1.80331093 10.72943352 1.80331093 9.51863098 1.81211853 C5.96329304 1.53509915 5.96329304 1.53509915 3 3 C0.32941149 3.14115161 -2.32432238 3.04247107 -5 3 C-5 2.67 -5 2.34 -5 2 C-3.35 2 -1.7 2 0 2 C0 1.34 0 0.68 0 0 Z " fill="#80BAFE" transform="translate(464,319)"/>
<path d="M0 0 C4.47997691 -0.02504287 8.95991485 -0.04301921 13.43994141 -0.05493164 C14.95850333 -0.05990685 16.4770606 -0.06668941 17.99560547 -0.07543945 C27.05422701 -0.1262634 35.9789916 0.03221644 45 1 C45 1.33 45 1.66 45 2 C39.41343908 2.16816883 33.82672908 2.32866804 28.23974609 2.48217773 C26.3405978 2.5354264 24.44150625 2.59074136 22.54248047 2.64819336 C19.80709055 2.73058462 17.07158027 2.80545303 14.3359375 2.87890625 C13.06996231 2.91945885 13.06996231 2.91945885 11.77841187 2.96083069 C7.37653692 3.07135527 3.33781834 2.91112592 -1 2 C-0.67 1.34 -0.34 0.68 0 0 Z " fill="#82B6FD" transform="translate(578,447)"/>
<path d="M0 0 C6.27 0.33 12.54 0.66 19 1 C19 1.66 19 2.32 19 3 C16.77090129 3.02714735 14.54170633 3.04646254 12.3125 3.0625 C11.07113281 3.07410156 9.82976563 3.08570313 8.55078125 3.09765625 C5.53764546 3.01478673 2.91724661 2.70839449 0 2 C0 1.34 0 0.68 0 0 Z " fill="#81B6FC" transform="translate(704,686)"/>
<path d="M0 0 C1.65 0 3.3 0 5 0 C4.67 0.66 4.34 1.32 4 2 C2.68 1.34 1.36 0.68 0 0 Z " fill="#81B3FB" transform="translate(743,413)"/>
<path d="M0 0 C1.65 0 3.3 0 5 0 C5 0.33 5 0.66 5 1 C3.35 1 1.7 1 0 1 C0 0.67 0 0.34 0 0 Z " fill="#82AFF4" transform="translate(302,699)"/>
<path d="M0 0 C4 1 4 1 4 1 Z " fill="#83B6FC" transform="translate(563,567)"/>
<path d="M0 0 C4 1 4 1 4 1 Z " fill="#82B4FC" transform="translate(352,549)"/>
<path d="M0 0 C1 4 1 4 1 4 Z " fill="#83B3FA" transform="translate(256,496)"/>
<path d="M0 0 C4 1 4 1 4 1 Z " fill="#82B5FB" transform="translate(660,447)"/>
<path d="M0 0 C0.99 0 1.98 0 3 0 C2.67 0.66 2.34 1.32 2 2 C1.34 1.34 0.68 0.68 0 0 Z " fill="#82B4FD" transform="translate(287,413)"/>
<path d="M0 0 C0.99 1.485 0.99 1.485 2 3 C1.34 3 0.68 3 0 3 C0 2.01 0 1.02 0 0 Z " fill="#81B4FD" transform="translate(683,404)"/>
<path d="M0 0 C3 1 3 1 3 1 Z " fill="#83B0F4" transform="translate(718,699)"/>
<path d="M0 0 C3 1 3 1 3 1 Z " fill="#83AFF4" transform="translate(310,699)"/>
<path d="M0 0 C3 1 3 1 3 1 Z " fill="#82B4F9" transform="translate(647,645)"/>
<path d="M0 0 C3 1 3 1 3 1 Z " fill="#82B4F9" transform="translate(607,645)"/>
<path d="M0 0 C3 1 3 1 3 1 Z " fill="#82B4F9" transform="translate(599,645)"/>
<path d="M0 0 C3 1 3 1 3 1 Z " fill="#82B4FA" transform="translate(591,645)"/>
<path d="M0 0 C3 1 3 1 3 1 Z " fill="#81B4F9" transform="translate(463,645)"/>
<path d="M0 0 C3 1 3 1 3 1 Z " fill="#81B3F9" transform="translate(407,645)"/>
<path d="M0 0 C3 1 3 1 3 1 Z " fill="#84B7FA" transform="translate(453,552)"/>
<path d="M0 0 C3 1 3 1 3 1 Z " fill="#80B5FD" transform="translate(363,550)"/>
<path d="M0 0 C0.99 0.495 0.99 0.495 2 1 C1.01 1.495 1.01 1.495 0 2 C0 1.34 0 0.68 0 0 Z " fill="#81B5FD" transform="translate(360,550)"/>
<path d="M0 0 C3 1 3 1 3 1 Z " fill="#83B5FC" transform="translate(674,548)"/>
<path d="M0 0 C3 1 3 1 3 1 Z " fill="#83B6FE" transform="translate(347,548)"/>
<path d="M0 0 C0.66 0 1.32 0 2 0 C1.67 0.66 1.34 1.32 1 2 C0.67 1.34 0.34 0.68 0 0 Z " fill="#82B5FE" transform="translate(344,547)"/>
<path d="M0 0 C0.66 0.66 1.32 1.32 2 2 C1.34 2 0.68 2 0 2 C0 1.34 0 0.68 0 0 Z " fill="#80B6FC" transform="translate(328,542)"/>
<path d="M0 0 C0.99 0.495 0.99 0.495 2 1 C1.01 1.495 1.01 1.495 0 2 C0 1.34 0 0.68 0 0 Z " fill="#83B6FE" transform="translate(661,510)"/>
<path d="M0 0 C3 1 3 1 3 1 Z " fill="#83B5FD" transform="translate(683,503)"/>
<path d="M0 0 C0.99 0.495 0.99 0.495 2 1 C1.01 1.495 1.01 1.495 0 2 C0 1.34 0 0.68 0 0 Z " fill="#83B7FD" transform="translate(352,446)"/>
<path d="M0 0 C3 1 3 1 3 1 Z " fill="#83B5FC" transform="translate(673,445)"/>
<path d="M0 0 C3 1 3 1 3 1 Z " fill="#83B6FE" transform="translate(372,434)"/>
<path d="M0 0 C3 1 3 1 3 1 Z " fill="#80B4FA" transform="translate(752,415)"/>
<path d="M0 0 C2 1 2 1 2 1 Z " fill="#83B2F4" transform="translate(726,698)"/>
<path d="M0 0 C2 1 2 1 2 1 Z " fill="#83AFF2" transform="translate(318,698)"/>
<path d="M0 0 C2 1 2 1 2 1 Z " fill="#7FAFF3" transform="translate(328,695)"/>
<path d="M0 0 C2 1 2 1 2 1 Z " fill="#80AEF3" transform="translate(274,691)"/>
<path d="" fill="#80B0F4" transform="translate(0,0)"/>
<path d="" fill="#82B4FA" transform="translate(0,0)"/>
<path d="" fill="#82B4FC" transform="translate(0,0)"/>
<path d="M0 0 C2 1 2 1 2 1 Z " fill="#82B4FA" transform="translate(640,645)"/>
<path d="M0 0 C2 1 2 1 2 1 Z " fill="#82B4FA" transform="translate(631,645)"/>
<path d="M0 0 C2 1 2 1 2 1 Z " fill="#82B3FA" transform="translate(583,645)"/>
<path d="M0 0 C2 1 2 1 2 1 Z " fill="#82B4F9" transform="translate(551,645)"/>
<path d="M0 0 C2 1 2 1 2 1 Z " fill="#81B3F8" transform="translate(535,645)"/>
<path d="M0 0 C2 1 2 1 2 1 Z " fill="#82B3F8" transform="translate(495,645)"/>
<path d="M0 0 C2 1 2 1 2 1 Z " fill="#82B3F9" transform="translate(487,645)"/>
<path d="M0 0 C2 1 2 1 2 1 Z " fill="#81B3F8" transform="translate(479,645)"/>
<path d="M0 0 C2 1 2 1 2 1 Z " fill="#80B3F9" transform="translate(472,645)"/>
<path d="M0 0 C2 1 2 1 2 1 Z " fill="#81B4F9" transform="translate(456,645)"/>
<path d="M0 0 C2 1 2 1 2 1 Z " fill="#82B2F9" transform="translate(439,645)"/>
<path d="M0 0 C2 1 2 1 2 1 Z " fill="#82B3F9" transform="translate(431,645)"/>
<path d="M0 0 C2 1 2 1 2 1 Z " fill="#82B4FA" transform="translate(367,645)"/>
<path d="M0 0 C2 1 2 1 2 1 Z " fill="#82B3FA" transform="translate(364,645)"/>
<path d="" fill="#82B5FC" transform="translate(0,0)"/>
<path d="" fill="#84B6FD" transform="translate(0,0)"/>
<path d="" fill="#83B6FC" transform="translate(0,0)"/>
<path d="M0 0 C2 1 2 1 2 1 Z " fill="#82B5FB" transform="translate(452,566)"/>
<path d="M0 0 C2 1 2 1 2 1 Z " fill="#85B7FA" transform="translate(568,552)"/>
<path d="M0 0 C2 1 2 1 2 1 Z " fill="#83B4FC" transform="translate(663,550)"/>
<path d="M0 0 C2 1 2 1 2 1 Z " fill="#82B4FC" transform="translate(660,550)"/>
<path d="M0 0 C2 1 2 1 2 1 Z " fill="#83B6FD" transform="translate(671,549)"/>
<path d="M0 0 C2 1 2 1 2 1 Z " fill="#84B6FD" transform="translate(679,547)"/>
<path d="M0 0 C2 1 2 1 2 1 Z " fill="#82B7FB" transform="translate(693,543)"/>
<path d="M0 0 C2 1 2 1 2 1 Z " fill="#82B4FC" transform="translate(580,535)"/>
<path d="M0 0 C2 1 2 1 2 1 Z " fill="#81B6FC" transform="translate(576,535)"/>
<path d="M0 0 C2 1 2 1 2 1 Z " fill="#80B4FC" transform="translate(573,535)"/>
<path d="M0 0 C2 1 2 1 2 1 Z " fill="#81B6FC" transform="translate(560,535)"/>
<path d="M0 0 C2 1 2 1 2 1 Z " fill="#81B6FB" transform="translate(552,535)"/>
<path d="M0 0 C2 1 2 1 2 1 Z " fill="#81B7FB" transform="translate(528,535)"/>
<path d="M0 0 C2 1 2 1 2 1 Z " fill="#80B6FB" transform="translate(512,535)"/>
<path d="M0 0 C2 1 2 1 2 1 Z " fill="#81B6FB" transform="translate(496,535)"/>
<path d="M0 0 C2 1 2 1 2 1 Z " fill="#81B6FD" transform="translate(488,535)"/>
<path d="M0 0 C2 1 2 1 2 1 Z " fill="#81B5FC" transform="translate(484,535)"/>
<path d="M0 0 C2 1 2 1 2 1 Z " fill="#80B6FD" transform="translate(472,535)"/>
<path d="M0 0 C2 1 2 1 2 1 Z " fill="#81B5FA" transform="translate(469,535)"/>
<path d="" fill="#82B5FC" transform="translate(0,0)"/>
<path d="M0 0 C2 1 2 1 2 1 Z " fill="#84B6FC" transform="translate(531,521)"/>
<path d="" fill="#82B7FC" transform="translate(0,0)"/>
<path d="M0 0 C2 1 2 1 2 1 Z " fill="#83B6FD" transform="translate(687,502)"/>
<path d="M0 0 C2 1 2 1 2 1 Z " fill="#81B6FD" transform="translate(336,502)"/>
<path d="M0 0 C2 1 2 1 2 1 Z " fill="#82B5FD" transform="translate(329,500)"/>
<path d="" fill="#84B7FD" transform="translate(0,0)"/>
<path d="" fill="#82B4FB" transform="translate(0,0)"/>
<path d="M0 0 C2 1 2 1 2 1 Z " fill="#84B5FC" transform="translate(598,450)"/>
<path d="M0 0 C2 1 2 1 2 1 Z " fill="#84B7FC" transform="translate(590,450)"/>
<path d="M0 0 C2 1 2 1 2 1 Z " fill="#7EB3F9" transform="translate(264,447)"/>
<path d="M0 0 C2 1 2 1 2 1 Z " fill="#83B6FA" transform="translate(659,433)"/>
<path d="M0 0 C2 1 2 1 2 1 Z " fill="#80B4FA" transform="translate(265,432)"/>
<path d="" fill="#82B2F6" transform="translate(0,0)"/>
<path d="M0 0 C2 1 2 1 2 1 Z " fill="#80B3FC" transform="translate(272,414)"/>
<path d="M0 0 C2 1 2 1 2 1 Z " fill="#81B3FC" transform="translate(279,413)"/>
<path d="M0 0 C2 1 2 1 2 1 Z " fill="#82B4FD" transform="translate(633,331)"/>
<path d="M0 0 C2 1 2 1 2 1 Z " fill="#82B4FB" transform="translate(619,327)"/>
<path d="M0 0 C2 1 2 1 2 1 Z " fill="#81B5F9" transform="translate(400,327)"/>
<path d="M0 0 C2 1 2 1 2 1 Z " fill="#83B5FE" transform="translate(408,326)"/>
<path d="M0 0 C2 1 2 1 2 1 Z " fill="#83B5FB" transform="translate(569,323)"/>
<path d="M0 0 C2 1 2 1 2 1 Z " fill="#84B5FB" transform="translate(566,323)"/>
<path d="M0 0 C2 1 2 1 2 1 Z " fill="#83B5FD" transform="translate(446,323)"/>
<path d="M0 0 C2 1 2 1 2 1 Z " fill="#84B4FB" transform="translate(510,322)"/>
<path d="M0 0 C2 1 2 1 2 1 Z " fill="#83B4FB" transform="translate(502,322)"/>
<path d="M0 0 C2 1 2 1 2 1 Z " fill="#84B4FB" transform="translate(486,322)"/>
<path d="M0 0 C2 1 2 1 2 1 Z " fill="#81B4F9" transform="translate(401,312)"/>
<path d="M0 0 C2 1 2 1 2 1 Z " fill="#82B1F7" transform="translate(447,309)"/>
<path d="" fill="#4D5D76" transform="translate(0,0)"/>
<path d="" fill="#4E5E77" transform="translate(0,0)"/>
<path d="" fill="#4B5C73" transform="translate(0,0)"/>
<path d="" fill="#4B5C72" transform="translate(0,0)"/>
<path d="" fill="#4C5A71" transform="translate(0,0)"/>
<path d="" fill="#52637A" transform="translate(0,0)"/>
<path d="" fill="#4F627A" transform="translate(0,0)"/>
<path d="" fill="#53657E" transform="translate(0,0)"/>
<path d="" fill="#4E5C74" transform="translate(0,0)"/>
<path d="" fill="#53667E" transform="translate(0,0)"/>
<path d="" fill="#4F5E76" transform="translate(0,0)"/>
<path d="" fill="#50607A" transform="translate(0,0)"/>
<path d="" fill="#4F6075" transform="translate(0,0)"/>
<path d="" fill="#5B6D88" transform="translate(0,0)"/>
<path d="" fill="#50627A" transform="translate(0,0)"/>
<path d="" fill="#83AEF3" transform="translate(0,0)"/>
<path d="" fill="#83AFF4" transform="translate(0,0)"/>
<path d="" fill="#82B1F5" transform="translate(0,0)"/>
<path d="" fill="#84B1F4" transform="translate(0,0)"/>
<path d="" fill="#82AFF5" transform="translate(0,0)"/>
<path d="" fill="#82AFF3" transform="translate(0,0)"/>
<path d="" fill="#82AFF3" transform="translate(0,0)"/>
<path d="" fill="#82AEF2" transform="translate(0,0)"/>
<path d="" fill="#7FACF1" transform="translate(0,0)"/>
<path d="" fill="#80AEF3" transform="translate(0,0)"/>
<path d="" fill="#7FAFF1" transform="translate(0,0)"/>
<path d="" fill="#82B0F7" transform="translate(0,0)"/>
<path d="" fill="#83B4FA" transform="translate(0,0)"/>
<path d="" fill="#84B5FB" transform="translate(0,0)"/>
<path d="" fill="#83B3FC" transform="translate(0,0)"/>
<path d="" fill="#85B4FB" transform="translate(0,0)"/>
<path d="" fill="#85B4FC" transform="translate(0,0)"/>
<path d="" fill="#83B6FB" transform="translate(0,0)"/>
<path d="" fill="#82B5F9" transform="translate(0,0)"/>
<path d="" fill="#82B4F9" transform="translate(0,0)"/>
<path d="" fill="#82AFF2" transform="translate(0,0)"/>
<path d="" fill="#81B0F1" transform="translate(0,0)"/>
<path d="" fill="#83B5FA" transform="translate(0,0)"/>
<path d="" fill="#82B6FA" transform="translate(0,0)"/>
<path d="" fill="#84B5FC" transform="translate(0,0)"/>
<path d="" fill="#83B5FB" transform="translate(0,0)"/>
<path d="" fill="#85B7FE" transform="translate(0,0)"/>
<path d="" fill="#82B5FC" transform="translate(0,0)"/>
<path d="" fill="#83B5FB" transform="translate(0,0)"/>
<path d="" fill="#84B4FB" transform="translate(0,0)"/>
<path d="" fill="#82B3FC" transform="translate(0,0)"/>
<path d="" fill="#81B3FB" transform="translate(0,0)"/>
<path d="" fill="#82B5F9" transform="translate(0,0)"/>
<path d="" fill="#81B3FB" transform="translate(0,0)"/>
<path d="" fill="#82B4F8" transform="translate(0,0)"/>
<path d="" fill="#83B4F9" transform="translate(0,0)"/>
<path d="" fill="#82B3F8" transform="translate(0,0)"/>
<path d="" fill="#81B3F9" transform="translate(0,0)"/>
<path d="" fill="#82B2F9" transform="translate(0,0)"/>
<path d="" fill="#81B3F7" transform="translate(0,0)"/>
<path d="" fill="#82B3FA" transform="translate(0,0)"/>
<path d="" fill="#81B4FB" transform="translate(0,0)"/>
<path d="" fill="#81B4FA" transform="translate(0,0)"/>
<path d="" fill="#83B4F9" transform="translate(0,0)"/>
<path d="" fill="#82B4FB" transform="translate(0,0)"/>
<path d="" fill="#84B5FC" transform="translate(0,0)"/>
<path d="" fill="#83B6FD" transform="translate(0,0)"/>
<path d="" fill="#84B7FA" transform="translate(0,0)"/>
<path d="" fill="#81B3FB" transform="translate(0,0)"/>
<path d="" fill="#82B5FD" transform="translate(0,0)"/>
<path d="" fill="#85B6FB" transform="translate(0,0)"/>
<path d="" fill="#7FB6FB" transform="translate(0,0)"/>
<path d="" fill="#82B4FC" transform="translate(0,0)"/>
<path d="" fill="#82B5FE" transform="translate(0,0)"/>
<path d="" fill="#83B4FD" transform="translate(0,0)"/>
<path d="" fill="#80B7FC" transform="translate(0,0)"/>
<path d="" fill="#82B5FF" transform="translate(0,0)"/>
<path d="" fill="#84B7FF" transform="translate(0,0)"/>
<path d="" fill="#86B8FF" transform="translate(0,0)"/>
<path d="" fill="#85B6FE" transform="translate(0,0)"/>
<path d="" fill="#83B8FE" transform="translate(0,0)"/>
<path d="" fill="#85B7FE" transform="translate(0,0)"/>
<path d="" fill="#84B7FB" transform="translate(0,0)"/>
<path d="" fill="#86B8FE" transform="translate(0,0)"/>
<path d="" fill="#84B6FD" transform="translate(0,0)"/>
<path d="" fill="#83B5FD" transform="translate(0,0)"/>
<path d="" fill="#7FB4FC" transform="translate(0,0)"/>
<path d="" fill="#81B4FC" transform="translate(0,0)"/>
<path d="" fill="#82B4FF" transform="translate(0,0)"/>
<path d="" fill="#85B7FF" transform="translate(0,0)"/>
<path d="" fill="#83B7FE" transform="translate(0,0)"/>
<path d="" fill="#84B7FE" transform="translate(0,0)"/>
<path d="" fill="#80B4FB" transform="translate(0,0)"/>
<path d="" fill="#83B6FB" transform="translate(0,0)"/>
<path d="" fill="#84B6FD" transform="translate(0,0)"/>
<path d="" fill="#84B6FE" transform="translate(0,0)"/>
<path d="" fill="#83B5FD" transform="translate(0,0)"/>
<path d="" fill="#84B7FE" transform="translate(0,0)"/>
<path d="" fill="#80B5FB" transform="translate(0,0)"/>
<path d="" fill="#7FB5FB" transform="translate(0,0)"/>
<path d="" fill="#81B6FC" transform="translate(0,0)"/>
<path d="" fill="#83B5FC" transform="translate(0,0)"/>
<path d="" fill="#81B7FC" transform="translate(0,0)"/>
<path d="" fill="#83B6FC" transform="translate(0,0)"/>
<path d="" fill="#82B7FB" transform="translate(0,0)"/>
<path d="" fill="#83B4FD" transform="translate(0,0)"/>
<path d="" fill="#81B7FB" transform="translate(0,0)"/>
<path d="" fill="#82B6FD" transform="translate(0,0)"/>
<path d="" fill="#81B6FC" transform="translate(0,0)"/>
<path d="" fill="#83B6FC" transform="translate(0,0)"/>
<path d="" fill="#82B6FD" transform="translate(0,0)"/>
<path d="" fill="#81B6FC" transform="translate(0,0)"/>
<path d="" fill="#84B6FF" transform="translate(0,0)"/>
<path d="" fill="#84B6FD" transform="translate(0,0)"/>
<path d="" fill="#81B6FD" transform="translate(0,0)"/>
<path d="" fill="#85B7FE" transform="translate(0,0)"/>
<path d="" fill="#83B5FD" transform="translate(0,0)"/>
<path d="" fill="#84B7FB" transform="translate(0,0)"/>
<path d="" fill="#81B4FA" transform="translate(0,0)"/>
<path d="" fill="#83B7FD" transform="translate(0,0)"/>
<path d="" fill="#82B7FE" transform="translate(0,0)"/>
<path d="" fill="#82B6FD" transform="translate(0,0)"/>
<path d="" fill="#83B6FC" transform="translate(0,0)"/>
<path d="" fill="#84B6FB" transform="translate(0,0)"/>
<path d="" fill="#83B8FE" transform="translate(0,0)"/>
<path d="" fill="#85B8FD" transform="translate(0,0)"/>
<path d="" fill="#85B8FB" transform="translate(0,0)"/>
<path d="" fill="#83B6FB" transform="translate(0,0)"/>
<path d="" fill="#84B8FE" transform="translate(0,0)"/>
<path d="" fill="#84B5FE" transform="translate(0,0)"/>
<path d="" fill="#83B6FD" transform="translate(0,0)"/>
<path d="" fill="#84B7FC" transform="translate(0,0)"/>
<path d="" fill="#83B7FD" transform="translate(0,0)"/>
<path d="" fill="#7FB4FC" transform="translate(0,0)"/>
<path d="" fill="#81B7FD" transform="translate(0,0)"/>
<path d="" fill="#85B7FD" transform="translate(0,0)"/>
<path d="" fill="#84B7FF" transform="translate(0,0)"/>
<path d="" fill="#83B7FF" transform="translate(0,0)"/>
<path d="" fill="#85B7FD" transform="translate(0,0)"/>
<path d="" fill="#82B6FD" transform="translate(0,0)"/>
<path d="" fill="#84B5FC" transform="translate(0,0)"/>
<path d="" fill="#84B6FF" transform="translate(0,0)"/>
<path d="" fill="#85B8FE" transform="translate(0,0)"/>
<path d="" fill="#80B6FC" transform="translate(0,0)"/>
<path d="" fill="#81B6FE" transform="translate(0,0)"/>
<path d="" fill="#81B5FE" transform="translate(0,0)"/>
<path d="" fill="#84B6FD" transform="translate(0,0)"/>
<path d="" fill="#83B7FE" transform="translate(0,0)"/>
<path d="" fill="#86B9FF" transform="translate(0,0)"/>
<path d="" fill="#86B8FD" transform="translate(0,0)"/>
<path d="" fill="#84B7FF" transform="translate(0,0)"/>
<path d="" fill="#82B6FE" transform="translate(0,0)"/>
<path d="" fill="#85B7FD" transform="translate(0,0)"/>
<path d="" fill="#83B6FD" transform="translate(0,0)"/>
<path d="" fill="#87B7FF" transform="translate(0,0)"/>
<path d="" fill="#85B7FF" transform="translate(0,0)"/>
<path d="" fill="#83B5FE" transform="translate(0,0)"/>
<path d="" fill="#85B7FD" transform="translate(0,0)"/>
<path d="" fill="#82B7FC" transform="translate(0,0)"/>
<path d="" fill="#85B8FD" transform="translate(0,0)"/>
<path d="" fill="#86B6FD" transform="translate(0,0)"/>
<path d="" fill="#85B9FF" transform="translate(0,0)"/>
<path d="" fill="#87B8FF" transform="translate(0,0)"/>
<path d="" fill="#84B7FC" transform="translate(0,0)"/>
<path d="" fill="#83B5FE" transform="translate(0,0)"/>
<path d="" fill="#82B3F9" transform="translate(0,0)"/>
<path d="" fill="#85B3FB" transform="translate(0,0)"/>
<path d="" fill="#84B6FA" transform="translate(0,0)"/>
<path d="" fill="#84B5FB" transform="translate(0,0)"/>
<path d="" fill="#83B5FD" transform="translate(0,0)"/>
<path d="" fill="#85B5FD" transform="translate(0,0)"/>
<path d="" fill="#86B5FB" transform="translate(0,0)"/>
<path d="" fill="#83B5FD" transform="translate(0,0)"/>
<path d="" fill="#85B6FC" transform="translate(0,0)"/>
<path d="" fill="#83B6FA" transform="translate(0,0)"/>
<path d="" fill="#81B5FC" transform="translate(0,0)"/>
<path d="" fill="#82B5FE" transform="translate(0,0)"/>
<path d="" fill="#84B5FA" transform="translate(0,0)"/>
<path d="" fill="#85B5FD" transform="translate(0,0)"/>
<path d="" fill="#86B7FE" transform="translate(0,0)"/>
<path d="" fill="#85B7FD" transform="translate(0,0)"/>
<path d="" fill="#83B6F8" transform="translate(0,0)"/>
<path d="" fill="#83B6FB" transform="translate(0,0)"/>
<path d="" fill="#80B6FE" transform="translate(0,0)"/>
<path d="" fill="#83B6FD" transform="translate(0,0)"/>
<path d="" fill="#84B7FE" transform="translate(0,0)"/>
<path d="" fill="#84B4FB" transform="translate(0,0)"/>
<path d="" fill="#82B6FD" transform="translate(0,0)"/>
<path d="" fill="#82B6FD" transform="translate(0,0)"/>
<path d="" fill="#84B5FD" transform="translate(0,0)"/>
<path d="" fill="#83B6FE" transform="translate(0,0)"/>
<path d="" fill="#82B5FE" transform="translate(0,0)"/>
<path d="" fill="#83B3F9" transform="translate(0,0)"/>
<path d="" fill="#82B6FE" transform="translate(0,0)"/>
<path d="" fill="#84B6FF" transform="translate(0,0)"/>
<path d="" fill="#84B5FF" transform="translate(0,0)"/>
<path d="" fill="#80B5F9" transform="translate(0,0)"/>
<path d="" fill="#84B7FC" transform="translate(0,0)"/>
<path d="" fill="#84B6FA" transform="translate(0,0)"/>
<path d="" fill="#83B6FC" transform="translate(0,0)"/>
<path d="" fill="#83B6FC" transform="translate(0,0)"/>
<path d="" fill="#7FB6FC" transform="translate(0,0)"/>
<path d="" fill="#82B6FB" transform="translate(0,0)"/>
<path d="" fill="#84B7FB" transform="translate(0,0)"/>
<path d="" fill="#84B6FD" transform="translate(0,0)"/>
<path d="" fill="#84B6FD" transform="translate(0,0)"/>
<path d="" fill="#80B1F8" transform="translate(0,0)"/>
<path d="" fill="#85B8FE" transform="translate(0,0)"/>
<path d="" fill="#82B8FD" transform="translate(0,0)"/>
<path d="" fill="#85B7FD" transform="translate(0,0)"/>
<path d="" fill="#87B7FD" transform="translate(0,0)"/>
<path d="" fill="#85B9FD" transform="translate(0,0)"/>
<path d="" fill="#82B7FD" transform="translate(0,0)"/>
<path d="" fill="#84B8FF" transform="translate(0,0)"/>
<path d="" fill="#84B6FF" transform="translate(0,0)"/>
<path d="" fill="#82B8FE" transform="translate(0,0)"/>
<path d="" fill="#81B6FC" transform="translate(0,0)"/>
<path d="" fill="#86B7FF" transform="translate(0,0)"/>
<path d="" fill="#82B2FA" transform="translate(0,0)"/>
<path d="" fill="#80B3FB" transform="translate(0,0)"/>
<path d="" fill="#85B7FD" transform="translate(0,0)"/>
<path d="" fill="#81B5FD" transform="translate(0,0)"/>
<path d="" fill="#82B8FD" transform="translate(0,0)"/>
<path d="" fill="#83B6FF" transform="translate(0,0)"/>
<path d="" fill="#85B5FA" transform="translate(0,0)"/>
<path d="" fill="#83B7FE" transform="translate(0,0)"/>
<path d="" fill="#83B5FB" transform="translate(0,0)"/>
<path d="" fill="#81B4FD" transform="translate(0,0)"/>
<path d="" fill="#81B4FE" transform="translate(0,0)"/>
<path d="" fill="#81B5FE" transform="translate(0,0)"/>
<path d="" fill="#82B5FE" transform="translate(0,0)"/>
<path d="" fill="#82B4FC" transform="translate(0,0)"/>
<path d="" fill="#7FB3FC" transform="translate(0,0)"/>
<path d="" fill="#81B1F4" transform="translate(0,0)"/>
<path d="" fill="#81B6FB" transform="translate(0,0)"/>
<path d="" fill="#83B2F5" transform="translate(0,0)"/>
<path d="" fill="#82B2F5" transform="translate(0,0)"/>
<path d="" fill="#82B3F8" transform="translate(0,0)"/>
<path d="" fill="#82B3F6" transform="translate(0,0)"/>
<path d="" fill="#81B3F7" transform="translate(0,0)"/>
<path d="" fill="#83B2F7" transform="translate(0,0)"/>
<path d="" fill="#83B9FF" transform="translate(0,0)"/>
<path d="" fill="#84B4FA" transform="translate(0,0)"/>
<path d="" fill="#80B4FE" transform="translate(0,0)"/>
<path d="" fill="#84B6FD" transform="translate(0,0)"/>
<path d="" fill="#83B4FF" transform="translate(0,0)"/>
<path d="" fill="#84B3FC" transform="translate(0,0)"/>
<path d="" fill="#83B6FE" transform="translate(0,0)"/>
<path d="" fill="#82B3FC" transform="translate(0,0)"/>
<path d="" fill="#84B4FC" transform="translate(0,0)"/>
<path d="" fill="#81B5FB" transform="translate(0,0)"/>
<path d="" fill="#84B5FB" transform="translate(0,0)"/>
<path d="" fill="#82B4FD" transform="translate(0,0)"/>
<path d="" fill="#84B2F8" transform="translate(0,0)"/>
<path d="" fill="#81B3FD" transform="translate(0,0)"/>
<path d="" fill="#83B3FE" transform="translate(0,0)"/>
<path d="" fill="#81B4FD" transform="translate(0,0)"/>
<path d="" fill="#81B3FD" transform="translate(0,0)"/>
<path d="" fill="#83B5FC" transform="translate(0,0)"/>
<path d="" fill="#536882" transform="translate(0,0)"/>
<path d="" fill="#657D9F" transform="translate(0,0)"/>
<path d="" fill="#82B3FB" transform="translate(0,0)"/>
<path d="" fill="#82B4FC" transform="translate(0,0)"/>
<path d="" fill="#83B5FD" transform="translate(0,0)"/>
<path d="" fill="#83B4FA" transform="translate(0,0)"/>
<path d="" fill="#83B4FD" transform="translate(0,0)"/>
<path d="" fill="#80B3FA" transform="translate(0,0)"/>
<path d="" fill="#82B2FB" transform="translate(0,0)"/>
<path d="" fill="#82B6FC" transform="translate(0,0)"/>
<path d="" fill="#83B4FF" transform="translate(0,0)"/>
<path d="" fill="#82B4FA" transform="translate(0,0)"/>
<path d="" fill="#82B3FB" transform="translate(0,0)"/>
<path d="" fill="#83B5FD" transform="translate(0,0)"/>
<path d="" fill="#82B5FB" transform="translate(0,0)"/>
<path d="" fill="#82B6FE" transform="translate(0,0)"/>
<path d="" fill="#83B6FD" transform="translate(0,0)"/>
<path d="" fill="#82B3FD" transform="translate(0,0)"/>
<path d="" fill="#81B1FA" transform="translate(0,0)"/>
<path d="" fill="#83B4FB" transform="translate(0,0)"/>
<path d="" fill="#85B6FC" transform="translate(0,0)"/>
<path d="" fill="#84B5FB" transform="translate(0,0)"/>
<path d="" fill="#84B3FB" transform="translate(0,0)"/>
<path d="" fill="#84B6FB" transform="translate(0,0)"/>
<path d="" fill="#81B4FE" transform="translate(0,0)"/>
<path d="" fill="#85B5FA" transform="translate(0,0)"/>
<path d="" fill="#83B5FB" transform="translate(0,0)"/>
<path d="" fill="#83B4F8" transform="translate(0,0)"/>
<path d="" fill="#82B3FB" transform="translate(0,0)"/>
<path d="" fill="#82B3F9" transform="translate(0,0)"/>
<path d="" fill="#83B4FB" transform="translate(0,0)"/>
<path d="" fill="#81B2F6" transform="translate(0,0)"/>
<path d="" fill="#84B3F8" transform="translate(0,0)"/>
<path d="" fill="#81B0F7" transform="translate(0,0)"/>
<path d="" fill="#84B2F8" transform="translate(0,0)"/>
<path d="" fill="#83B2F8" transform="translate(0,0)"/>
<path d="" fill="#83B3F8" transform="translate(0,0)"/>
<path d="" fill="#81B1F8" transform="translate(0,0)"/>
<path d="" fill="#82B2F7" transform="translate(0,0)"/>
<path d="" fill="#84B2F7" transform="translate(0,0)"/>
<path d="" fill="#596D8A" transform="translate(0,0)"/>
<path d="" fill="#4A5B71" transform="translate(0,0)"/>
<path d="" fill="#576986" transform="translate(0,0)"/>
<path d="" fill="#47596F" transform="translate(0,0)"/>
<path d="" fill="#51627B" transform="translate(0,0)"/>
<path d="" fill="#54657E" transform="translate(0,0)"/>
</svg>
